<svg width="24" height="24" viewBox="0 0 24 24" fill="none" xmlns="http://www.w3.org/2000/svg">
<g clip-path="url(#clip0_8570_811)">
<path d="M12.854 7.49967C13.261 7.57908 13.635 7.77812 13.9282 8.07131C14.2214 8.36451 14.4205 8.73854 14.4999 9.14551M12.854 5.83301C13.6996 5.92694 14.488 6.30558 15.09 6.90676C15.6919 7.50794 16.0715 8.29593 16.1665 9.14134M11.2611 10.776C10.7604 10.2753 10.3651 9.7092 10.0751 9.10519C10.0502 9.05323 10.0377 9.02726 10.0281 8.99438C9.99407 8.87757 10.0185 8.73413 10.0894 8.6352C10.1093 8.60736 10.1331 8.58355 10.1807 8.53592C10.3264 8.39025 10.3992 8.31741 10.4469 8.24417C10.6264 7.96797 10.6264 7.61189 10.4469 7.33569C10.3992 7.26245 10.3264 7.18961 10.1807 7.04394L10.0995 6.96275C9.87811 6.74131 9.7674 6.6306 9.64849 6.57045C9.412 6.45084 9.13273 6.45084 8.89624 6.57045C8.77733 6.6306 8.66662 6.74131 8.44518 6.96275L8.3795 7.02843C8.15883 7.2491 8.04849 7.35944 7.96422 7.50946C7.87071 7.67592 7.80347 7.93446 7.80404 8.12538C7.80455 8.29744 7.83793 8.41504 7.90468 8.65022C8.26342 9.91414 8.94029 11.1068 9.93528 12.1018C10.9303 13.0968 12.1229 13.7736 13.3868 14.1324C13.622 14.1991 13.7396 14.2325 13.9117 14.233C14.1026 14.2336 14.3611 14.1663 14.5276 14.0728C14.6776 13.9886 14.788 13.8782 15.0086 13.6576L15.0743 13.5919C15.2957 13.3704 15.4065 13.2597 15.4666 13.1408C15.5862 12.9043 15.5862 12.6251 15.4666 12.3886C15.4065 12.2697 15.2957 12.1589 15.0743 11.9375L14.9931 11.8563C14.8474 11.7106 14.7746 11.6378 14.7014 11.5902C14.4252 11.4106 14.0691 11.4106 13.7929 11.5902C13.7196 11.6378 13.6468 11.7106 13.5011 11.8563C13.4535 11.9039 13.4297 11.9278 13.4019 11.9477C13.3029 12.0185 13.1595 12.043 13.0427 12.0089C13.0098 11.9994 12.9838 11.9869 12.9319 11.9619C12.3279 11.6719 11.7618 11.2766 11.2611 10.776Z" stroke="#667085" stroke-width="1.3" stroke-linecap="round" stroke-linejoin="round"/>
</g>
<path d="M4 18L20 18" stroke="#667085" stroke-width="1.3"/>
<path d="M4 6.8C4 5.11984 4 4.27976 4.32698 3.63803C4.6146 3.07354 5.07354 2.6146 5.63803 2.32698C6.27976 2 7.11984 2 8.8 2H15.2C16.8802 2 17.7202 2 18.362 2.32698C18.9265 2.6146 19.3854 3.07354 19.673 3.63803C20 4.27976 20 5.11984 20 6.8V17.2C20 18.8802 20 19.7202 19.673 20.362C19.3854 20.9265 18.9265 21.3854 18.362 21.673C17.7202 22 16.8802 22 15.2 22H8.8C7.11984 22 6.27976 22 5.63803 21.673C5.07354 21.3854 4.6146 20.9265 4.32698 20.362C4 19.7202 4 18.8802 4 17.2V6.8Z" stroke="#667085" stroke-width="1.3" stroke-linecap="round" stroke-linejoin="round"/>
<path d="M7 20H9" stroke="#667085" stroke-width="1.3" stroke-linecap="round"/>
<path d="M13 20H13.0001" stroke="#667085" stroke-width="1.3" stroke-linecap="round"/>
<path d="M15 20H15.0001" stroke="#667085" stroke-width="1.3" stroke-linecap="round"/>
<path d="M17 20H17.0001" stroke="#667085" stroke-width="1.3" stroke-linecap="round"/>
<defs>
<clipPath id="clip0_8570_811">
<rect width="10" height="10" fill="white" transform="translate(7 5)"/>
</clipPath>
</defs>
</svg>
