<svg width="77" height="78" viewBox="0 0 77 78" fill="none" xmlns="http://www.w3.org/2000/svg">
<path d="M34.5206 0.711438C23.5799 1.84277 12.5108 8.52793 7.2459 17.1415C2.85422 24.2895 1.87829 33.3916 4.65198 41.2852C7.14317 48.4589 12.2283 54.167 19.1111 57.5353C22.7067 59.3094 25.9683 60.0808 30.1546 60.235L33.4933 60.3379L31.8239 59.7465C25.994 57.6638 21.8335 53.9613 19.2396 48.6389C17.6729 45.3734 17.185 43.4707 17.0052 39.7425C16.8511 36.4256 17.2363 33.7773 18.3664 30.7946C20.8062 24.3152 27.6634 18.3757 35.8047 15.6502C39.3745 14.4931 41.3264 14.1846 45.6924 14.1846C49.9813 14.1846 52.1643 14.5189 55.8883 15.753C65.853 19.0956 73.8659 27.6578 76.5112 37.7883L76.9992 39.6396V38.0969C77.0249 35.9371 76.3828 31.4117 75.7151 28.9177C74.0714 22.7467 70.6556 16.8072 66.1869 12.2562C57.7631 3.74547 46.129 -0.497032 34.5206 0.711438Z" fill="black"/>
<path d="M45.8209 18.4014C51.8819 20.6384 56.7616 25.3951 58.9189 31.1547C60.8194 36.1942 60.7937 41.8252 58.8675 46.7105C56.3763 52.9586 50.418 58.4867 42.9444 61.4693C36.2927 64.1176 28.1514 64.3747 21.4997 62.1378C16.5687 60.4922 12.4852 57.9467 8.83828 54.2956C4.65206 50.1045 1.98109 45.3478 0.260373 38.9969L0.0292317 38.0969L0.00354937 39.3311C-0.0478153 41.2338 0.465832 45.3221 1.05653 47.8676C4.26682 61.855 15.2332 72.9369 29.2558 76.3566C41.6603 79.4163 54.0135 76.3309 63.9526 67.7173C69.012 63.3463 72.4792 57.0725 73.4294 50.5416C73.9174 47.3019 73.6349 42.3137 72.8387 39.2026C71.5546 34.2915 69.0634 29.9976 65.3395 26.2694C60.1773 21.0755 54.3731 18.4786 47.105 18.0672L44.5368 17.9129L45.8209 18.4014Z" fill="black"/>
</svg>
