<svg width="20" height="20" viewBox="0 0 20 20" fill="none" xmlns="http://www.w3.org/2000/svg">
<path d="M1.66699 11.6667L18.3337 11.6667M6.66699 17.5H13.3337M5.66699 15H14.3337C15.7338 15 16.4339 15 16.9686 14.7275C17.439 14.4878 17.8215 14.1054 18.0612 13.635C18.3337 13.1002 18.3337 12.4001 18.3337 11V6.5C18.3337 5.09987 18.3337 4.3998 18.0612 3.86502C17.8215 3.39462 17.439 3.01217 16.9686 2.77248C16.4339 2.5 15.7338 2.5 14.3337 2.5H5.66699C4.26686 2.5 3.5668 2.5 3.03202 2.77248C2.56161 3.01217 2.17916 3.39462 1.93948 3.86502C1.66699 4.3998 1.66699 5.09987 1.66699 6.5V11C1.66699 12.4001 1.66699 13.1002 1.93948 13.635C2.17916 14.1054 2.56161 14.4878 3.03202 14.7275C3.5668 15 4.26686 15 5.66699 15Z" stroke="#667085" stroke-width="1.6" stroke-linecap="round" stroke-linejoin="round"/>
</svg>
