<svg width="20" height="20" viewBox="0 0 20 20" fill="none" xmlns="http://www.w3.org/2000/svg">
<g clip-path="url(#clip0_4338_36555)">
<path d="M5.07896 9.35766C5.02717 9.02385 5.00029 8.68187 5.00029 8.33366C5.00029 4.65176 8.0047 1.66699 11.7108 1.66699C15.4169 1.66699 18.4213 4.65176 18.4213 8.33366C18.4213 9.16539 18.268 9.96154 17.988 10.6957C17.9298 10.8482 17.9007 10.9245 17.8875 10.984C17.8744 11.043 17.8694 11.0845 17.8679 11.1449C17.8665 11.2058 17.8748 11.273 17.8913 11.4073L18.2268 14.1324C18.2631 14.4274 18.2813 14.5749 18.2322 14.6822C18.1892 14.7761 18.1128 14.8508 18.0179 14.8916C17.9096 14.9382 17.7625 14.9166 17.4684 14.8735L14.814 14.4844C14.6755 14.4641 14.6061 14.4539 14.543 14.4543C14.4806 14.4547 14.4374 14.4593 14.3763 14.4721C14.3145 14.4851 14.2356 14.5147 14.0778 14.5738C13.3417 14.8495 12.544 15.0003 11.7108 15.0003C11.3623 15.0003 11.02 14.9739 10.6859 14.9231M6.35997 18.3337C8.83072 18.3337 10.8337 16.2816 10.8337 13.7503C10.8337 11.219 8.83072 9.16699 6.35997 9.16699C3.88923 9.16699 1.88629 11.219 1.88629 13.7503C1.88629 14.2592 1.96722 14.7486 2.11662 15.2059C2.17977 15.3992 2.21134 15.4959 2.22171 15.5619C2.23252 15.6309 2.23442 15.6696 2.23039 15.7393C2.22653 15.806 2.20984 15.8814 2.17645 16.0323L1.66699 18.3337L4.16266 17.9928C4.29888 17.9742 4.36699 17.9649 4.42647 17.9653C4.48909 17.9657 4.52233 17.9691 4.58375 17.9814C4.64208 17.993 4.72879 18.0236 4.90222 18.0848C5.35915 18.2461 5.84958 18.3337 6.35997 18.3337Z" stroke="#667085" stroke-width="1.6" stroke-linecap="round" stroke-linejoin="round"/>
</g>
<defs>
<clipPath id="clip0_4338_36555">
<rect width="20" height="20" fill="white"/>
</clipPath>
</defs>
</svg>
