<svg width="20" height="20" viewBox="0 0 20 20" fill="none" xmlns="http://www.w3.org/2000/svg">
<path d="M15.417 13.3333C17.0278 13.3333 18.3337 10.9082 18.3337 7.91667C18.3337 4.92512 17.0278 2.5 15.417 2.5M15.417 13.3333C13.8062 13.3333 12.5003 10.9082 12.5003 7.91667C12.5003 4.92512 13.8062 2.5 15.417 2.5M15.417 13.3333L4.53661 11.3551C3.7637 11.2146 3.37725 11.1443 3.06476 10.9908C2.42905 10.6785 1.95563 10.1113 1.76211 9.42994C1.66699 9.09504 1.66699 8.70225 1.66699 7.91667C1.66699 7.13108 1.66699 6.73829 1.76211 6.40339C1.95563 5.72207 2.42905 5.15481 3.06476 4.84254C3.37725 4.68904 3.7637 4.61878 4.53661 4.47825L15.417 2.5M4.16699 11.6667L4.49521 16.2617C4.52638 16.698 4.54196 16.9162 4.63689 17.0816C4.72047 17.2272 4.84607 17.3441 4.99724 17.4171C5.16893 17.5 5.38767 17.5 5.82515 17.5H7.31049C7.81061 17.5 8.06067 17.5 8.24575 17.4003C8.40838 17.3126 8.53728 17.1734 8.61218 17.0046C8.69743 16.8124 8.67825 16.5631 8.6399 16.0644L8.33366 12.0833" stroke="#667085" stroke-width="1.6" stroke-linecap="round" stroke-linejoin="round"/>
</svg>
