<svg width="56" height="56" viewBox="0 0 56 56" fill="none" xmlns="http://www.w3.org/2000/svg">
<path d="M11.2012 27.9999V13.9998C11.2012 9.36066 14.962 5.59985 19.6012 5.59985H33.6012M33.6012 51.7998H43.4012C48.0404 51.7998 51.8012 48.039 51.8012 43.3998V23.7999M33.6012 5.59985H34.0853C36.4519 5.59985 38.7088 6.59822 40.3008 8.3494L49.9177 18.928C51.1296 20.2612 51.8012 21.9982 51.8012 23.7999V23.7999M33.6012 5.59985V23.7999H51.8012" stroke="#101828" stroke-width="3.5" stroke-linecap="round" stroke-linejoin="round"/>
<path d="M21.9515 42.3031L18.3757 38.7273M24.3476 29.7879V28M29.043 31.6481L30.3073 30.3839M29.043 41.1112L30.3073 42.3754M19.5799 31.6481L18.3157 30.3839M30.9032 36.3435H32.6911M13.7646 50.49L24.7747 39.4799C25.2467 39.0079 25.4827 38.7718 25.5711 38.4997C25.6489 38.2603 25.6489 38.0024 25.5711 37.763C25.4827 37.4909 25.2467 37.2549 24.7747 36.7829L23.8959 35.9041C23.4239 35.4321 23.1879 35.1961 22.9157 35.1076C22.6763 35.0299 22.4185 35.0299 22.1791 35.1076C21.9069 35.1961 21.6709 35.4321 21.1989 35.9041L10.1888 46.9142C9.71676 47.3862 9.48075 47.6223 9.39232 47.8944C9.31454 48.1338 9.31454 48.3917 9.39232 48.6311C9.48075 48.9032 9.71676 49.1392 10.1888 49.6112L11.0675 50.49C11.5396 50.962 11.7756 51.198 12.0477 51.2865C12.2871 51.3642 12.545 51.3642 12.7844 51.2865C13.0565 51.198 13.2925 50.962 13.7646 50.49Z" stroke="#101828" stroke-width="2.8" stroke-linecap="round" stroke-linejoin="round"/>
</svg>
