<svg width="56" height="56" viewBox="0 0 56 56" fill="none" xmlns="http://www.w3.org/2000/svg">
<path d="M28 0.4375C24.85 0.4375 22.3125 2.975 22.3125 6.125C22.3125 9.275 24.85 11.8125 28 11.8125C31.15 11.8125 33.6875 9.275 33.6875 6.125C33.6875 2.975 31.15 0.4375 28 0.4375ZM28 3.0625C29.7063 3.0625 31.0625 4.41875 31.0625 6.125C31.0625 7.83125 29.7063 9.1875 28 9.1875C26.2937 9.1875 24.9375 7.83125 24.9375 6.125C24.9375 4.41875 26.2937 3.0625 28 3.0625ZM19.3816 9.41821C19.1273 9.39873 18.867 9.45017 18.6373 9.58142L16.3627 10.8939C15.7502 11.2439 15.5316 12.075 15.8816 12.6875C16.1003 13.125 16.5814 13.3438 17.0189 13.3438C17.2377 13.3438 17.4564 13.2998 17.6752 13.1686L19.9498 11.8561C20.5623 11.5061 20.7809 10.675 20.4309 10.0625C20.2122 9.67969 19.8054 9.45068 19.3816 9.41821ZM36.6184 9.41821C36.1946 9.45068 35.7878 9.67969 35.5691 10.0625C35.2191 10.675 35.4377 11.5061 36.0502 11.8561L38.3248 13.1686C38.5436 13.2998 38.7623 13.3438 38.9811 13.3438C39.4186 13.3438 39.8559 13.125 40.1184 12.6875C40.4684 12.075 40.2498 11.2439 39.6373 10.8939L37.3627 9.58142C37.133 9.45017 36.8727 9.39873 36.6184 9.41821ZM8.3125 11.375C5.1625 11.375 2.625 13.9125 2.625 17.0625C2.625 20.2125 5.1625 22.75 8.3125 22.75C11.4625 22.75 14 20.2125 14 17.0625C14 13.9125 11.4625 11.375 8.3125 11.375ZM47.6875 11.375C44.5375 11.375 42 13.9125 42 17.0625C42 20.2125 44.5375 22.75 47.6875 22.75C50.8375 22.75 53.375 20.2125 53.375 17.0625C53.375 13.9125 50.8375 11.375 47.6875 11.375ZM8.3125 14C10.0188 14 11.375 15.3562 11.375 17.0625C11.375 18.7688 10.0188 20.125 8.3125 20.125C6.60625 20.125 5.25 18.7688 5.25 17.0625C5.25 15.3562 6.60625 14 8.3125 14ZM47.6875 14C49.3938 14 50.75 15.3562 50.75 17.0625C50.75 18.7688 49.3938 20.125 47.6875 20.125C45.9812 20.125 44.625 18.7688 44.625 17.0625C44.625 15.3562 45.9812 14 47.6875 14ZM28 16.1875C21.2625 16.1875 15.75 21.7 15.75 28.4375C15.75 35.175 21.2625 40.6875 28 40.6875C34.7375 40.6875 40.25 35.175 40.25 28.4375C40.25 21.7 34.7375 16.1875 28 16.1875ZM28 18.8125C29.3125 18.8125 30.5377 19.0747 31.6752 19.5559V20.2566C31.6752 20.7816 31.3688 21.3059 30.8438 21.5247C29.75 22.0059 28.6564 21.7436 28.1752 23.0123C27.8252 23.9311 28.8311 26.5123 30.0123 26.5123C31.5436 26.5123 32.2878 23.4062 32.7253 23.4062C33.0316 23.4062 33.4684 24.3247 33.9934 25.0247C34.3434 25.5059 34.9122 25.7689 35.5247 25.7689H36.5312L37.1875 25.9441C37.4937 26.6878 37.625 27.5625 37.625 28.4375C37.625 33.7313 33.2938 38.0625 28 38.0625C26.3812 38.0625 24.8497 37.6688 23.4934 36.9688H23.5378C23.8878 36.75 24.2814 36.5314 24.6752 36.2689C24.9814 36.0502 25.2 35.7872 25.375 35.5247C25.5938 35.1747 25.8128 34.7812 25.9441 34.3438C26.7316 31.3687 24.15 31.2377 24.0625 30.5814C23.975 29.8377 24.9378 29.3123 25.5066 28.6998C26.0753 28.0873 26.2503 27.2125 25.9441 26.6875C24.9816 24.9812 22.7063 25.8566 22.5312 27.6941C22.4 28.7878 21.7439 29.9248 21.1752 30.4498C20.6064 31.0186 19.5127 30.7128 19.2064 29.8816C18.8564 28.9628 20.0377 28.6128 19.8627 27.4753C19.8189 27.1691 19.4686 26.9936 19.0748 26.9498L18.4186 26.9934C19.2061 22.3559 23.1875 18.8125 28 18.8125ZM8.3125 25.375C7.56875 25.375 7 25.9437 7 26.6875V29.3125C7 30.0563 7.56875 30.625 8.3125 30.625C9.05625 30.625 9.625 30.0563 9.625 29.3125V26.6875C9.625 25.9437 9.05625 25.375 8.3125 25.375ZM47.6875 25.375C46.9437 25.375 46.375 25.9437 46.375 26.6875V29.3125C46.375 30.0563 46.9437 30.625 47.6875 30.625C48.4313 30.625 49 30.0563 49 29.3125V26.6875C49 25.9437 48.4313 25.375 47.6875 25.375ZM35.0436 29.0168C34.5229 29.042 33.7969 29.2961 32.8125 29.9688C32.0687 30.4938 30.7127 29.3998 30.1439 30.2311C29.5752 31.0186 32.5062 33.3809 33.4688 32.8997C35.1312 32.1122 36.1809 30.4939 36.1809 29.9252C36.2083 29.5697 35.9113 28.975 35.0436 29.0168ZM8.3125 33.25C5.1625 33.25 2.625 35.7875 2.625 38.9375C2.625 42.0875 5.1625 44.625 8.3125 44.625C11.4625 44.625 14 42.0875 14 38.9375C14 35.7875 11.4625 33.25 8.3125 33.25ZM47.6875 33.25C44.5375 33.25 42 35.7875 42 38.9375C42 42.0875 44.5375 44.625 47.6875 44.625C50.8375 44.625 53.375 42.0875 53.375 38.9375C53.375 35.7875 50.8375 33.25 47.6875 33.25ZM8.3125 35.875C10.0188 35.875 11.375 37.2312 11.375 38.9375C11.375 40.6438 10.0188 42 8.3125 42C6.60625 42 5.25 40.6438 5.25 38.9375C5.25 37.2312 6.60625 35.875 8.3125 35.875ZM47.6875 35.875C49.3938 35.875 50.75 37.2312 50.75 38.9375C50.75 40.6438 49.3938 42 47.6875 42C45.9812 42 44.625 40.6438 44.625 38.9375C44.625 37.2312 45.9812 35.875 47.6875 35.875ZM16.9309 42.6682C16.5071 42.7007 16.1003 42.9297 15.8816 43.3125C15.5316 43.925 15.7502 44.7561 16.3627 45.1061L18.6373 46.4186C18.8561 46.5498 19.0748 46.5938 19.2936 46.5938C19.7311 46.5938 20.1684 46.375 20.4309 45.9375C20.7809 45.325 20.5623 44.4939 19.9498 44.1439L17.6752 42.8314C17.4455 42.7002 17.1852 42.6487 16.9309 42.6682ZM39.0691 42.6682C38.8148 42.6487 38.5545 42.7002 38.3248 42.8314L36.0502 44.1439C35.4377 44.4939 35.2191 45.325 35.5691 45.9375C35.8316 46.375 36.2689 46.5938 36.7064 46.5938C36.9252 46.5938 37.1439 46.5498 37.3627 46.4186L39.6373 45.1061C40.2498 44.7561 40.4684 43.925 40.1184 43.3125C39.8997 42.9297 39.4929 42.7007 39.0691 42.6682ZM28 44.1875C24.85 44.1875 22.3125 46.725 22.3125 49.875C22.3125 53.025 24.85 55.5625 28 55.5625C31.15 55.5625 33.6875 53.025 33.6875 49.875C33.6875 46.725 31.15 44.1875 28 44.1875ZM28 46.8125C29.7063 46.8125 31.0625 48.1687 31.0625 49.875C31.0625 51.5813 29.7063 52.9375 28 52.9375C26.2937 52.9375 24.9375 51.5813 24.9375 49.875C24.9375 48.1687 26.2937 46.8125 28 46.8125Z" fill="#101828"/>
</svg>
