<svg width="56" height="56" viewBox="0 0 56 56" fill="none" xmlns="http://www.w3.org/2000/svg">
<path d="M31.0625 20.125C30.3187 20.125 29.75 20.6937 29.75 21.4375C29.75 22.1813 30.3187 22.75 31.0625 22.75H37.625C37.975 22.75 38.325 22.6187 38.5437 22.3562L42.6125 18.2875C43.225 18.5937 43.925 18.7688 44.625 18.7688C47.0312 18.7688 49 16.8 49 14.3938C49 11.9875 47.0312 10.0187 44.625 10.0187C42.2188 10.0187 40.25 11.9875 40.25 14.3938C40.25 15.1375 40.425 15.7938 40.7312 16.4062L37.1 20.125H31.0625ZM44.625 12.6875C45.5875 12.6875 46.375 13.475 46.375 14.4375C46.375 15.4 45.5875 16.1875 44.625 16.1875C43.6625 16.1875 42.875 15.4 42.875 14.4375C42.875 13.475 43.6625 12.6875 44.625 12.6875ZM48.5625 23.625C46.5938 23.625 44.9313 24.8938 44.4062 26.6875H31.0625C30.3187 26.6875 29.75 27.2562 29.75 28C29.75 28.7438 30.3187 29.3125 31.0625 29.3125H44.4062C44.975 31.1062 46.6375 32.375 48.5625 32.375C50.9688 32.375 52.9375 30.4062 52.9375 28C52.9375 25.5938 50.9688 23.625 48.5625 23.625ZM48.5625 29.75C47.6 29.75 46.8125 28.9625 46.8125 28C46.8125 27.0375 47.6 26.25 48.5625 26.25C49.525 26.25 50.3125 27.0375 50.3125 28C50.3125 28.9625 49.525 29.75 48.5625 29.75ZM33.25 3.9375C30.8438 3.9375 28.875 5.90625 28.875 8.3125C28.875 10.7188 30.8438 12.6875 33.25 12.6875C35.6562 12.6875 37.625 10.7188 37.625 8.3125C37.625 5.90625 35.6562 3.9375 33.25 3.9375ZM33.25 10.0625C32.2875 10.0625 31.5 9.275 31.5 8.3125C31.5 7.35 32.2875 6.5625 33.25 6.5625C34.2125 6.5625 35 7.35 35 8.3125C35 9.275 34.2125 10.0625 33.25 10.0625ZM44.625 45.9375C47.0312 45.9375 49 43.9688 49 41.5625C49 39.1562 47.0312 37.1875 44.625 37.1875C43.8812 37.1875 43.225 37.3625 42.6125 37.6687L38.5437 33.6C38.325 33.3813 37.975 33.25 37.625 33.25H31.0625C30.3187 33.25 29.75 33.8187 29.75 34.5625C29.75 35.3063 30.3187 35.875 31.0625 35.875H37.1L40.775 39.55C40.4687 40.1625 40.2937 40.8625 40.2937 41.5625C40.25 43.9688 42.2188 45.9375 44.625 45.9375ZM44.625 39.8125C45.5875 39.8125 46.375 40.6 46.375 41.5625C46.375 42.525 45.5875 43.3125 44.625 43.3125C43.6625 43.3125 42.875 42.525 42.875 41.5625C42.875 40.6 43.6625 39.8125 44.625 39.8125ZM33.25 52.0625C35.6562 52.0625 37.625 50.0938 37.625 47.6875C37.625 45.2812 35.6562 43.3125 33.25 43.3125C30.8438 43.3125 28.875 45.2812 28.875 47.6875C28.875 50.0938 30.8438 52.0625 33.25 52.0625ZM33.25 45.9375C34.2125 45.9375 35 46.725 35 47.6875C35 48.65 34.2125 49.4375 33.25 49.4375C32.2875 49.4375 31.5 48.65 31.5 47.6875C31.5 46.725 32.2875 45.9375 33.25 45.9375ZM21.4375 6.2125C19.2063 6.2125 17.325 7.56875 16.5375 9.5375C16.0125 9.3625 15.4437 9.275 14.875 9.275C11.725 9.275 9.1875 11.8125 9.1875 14.9625C9.1875 14.9625 9.1875 14.9625 9.1875 15.0062C6.43125 15.6187 4.33125 18.0688 4.33125 21C4.33125 21.875 4.50625 22.7063 4.85625 23.4938C3.19375 24.9813 2.1875 27.125 2.1875 29.4C2.1875 31.4562 2.975 33.3375 4.33125 34.7812C4.33125 36.05 4.375 37.975 4.375 38.15C4.375 42.3062 7.65625 45.7625 11.7687 46.025C13.0812 48.6937 15.7937 50.4 18.8125 50.4C23.1437 50.4 26.6875 46.8562 26.6875 42.525V11.4625C26.6875 8.575 24.325 6.2125 21.4375 6.2125ZM16.45 29.4C15.8375 29.4 15.3125 29.8375 15.1813 30.45C14.7 32.8562 12.5562 34.65 10.0187 34.65C9.0125 34.65 8.05 34.3438 7.21875 33.8188C5.6875 32.8563 4.76875 31.1937 4.76875 29.4C4.76875 27.6937 5.6 26.1625 6.95625 25.1562H8.6625C9.31875 25.1562 9.8875 24.7187 10.0187 24.1062C10.1937 23.275 9.5375 22.5312 8.75 22.5312H7.35C7.0875 22.05 6.95625 21.525 6.95625 20.9563C6.95625 19.25 8.18125 17.85 9.8 17.5437C10.7187 19.3375 12.5562 20.6063 14.7 20.65C15.4437 20.65 16.1 20.125 16.1438 19.3812C16.1875 18.6375 15.575 18.025 14.8313 18.025C13.475 18.025 12.2938 17.1062 11.9 15.8812C11.8563 15.75 11.8125 15.6188 11.8125 15.4875C11.8125 15.4438 11.8125 15.4438 11.8125 15.4C11.8125 15.2688 11.7687 15.1375 11.7687 14.9625C11.7687 13.2563 13.125 11.9 14.8313 11.9C15.4875 11.9 16.1437 12.1188 16.6687 12.5125C16.975 12.7313 17.4125 12.8625 17.8063 12.7313C18.375 12.5563 18.7688 12.0313 18.7688 11.4625C18.7688 11.4625 18.7688 11.4625 18.7688 11.4188C18.7688 9.8875 20.1688 8.61875 21.7438 8.8375C23.0563 9.0125 24.0188 10.1937 24.0188 11.55V42.35C24.0188 44.8875 22.2687 47.1625 19.8187 47.6438C17.1937 48.1688 14.7 46.6375 13.825 44.2312C13.65 43.6625 13.0813 43.3125 12.5125 43.3562H12.3812C12.3375 43.3562 12.25 43.3562 12.2062 43.3562C9.31875 43.3562 6.95625 40.9937 6.95625 38.1062C6.95625 38.0187 6.95625 37.3625 7 36.6187C7.91875 37.0125 8.96875 37.2312 10.0187 37.2312C13.825 37.2312 17.0187 34.5187 17.7625 30.8875C17.9375 30.1 17.325 29.3562 16.4938 29.3562H16.45V29.4Z" fill="#101828"/>
</svg>
