<svg width="56" height="56" viewBox="0 0 56 56" fill="none" xmlns="http://www.w3.org/2000/svg">
<rect width="56" height="56" rx="12" fill="#FEFBE8"/>
<path fill-rule="evenodd" clip-rule="evenodd" d="M20.5681 18C21.856 18.0002 23.1465 18.0002 24.4319 18C24.6843 18 24.9301 17.9999 25.1382 18.017C25.3668 18.0356 25.6366 18.0797 25.908 18.218C26.2843 18.4097 26.5903 18.7157 26.782 19.092C26.9203 19.3634 26.9644 19.6332 26.9831 19.8618C27.0001 20.0699 27 20.3157 27 20.5681V24.4319C27 24.6843 27.0001 24.9301 26.9831 25.1382C26.9644 25.3668 26.9203 25.6366 26.782 25.908C26.5903 26.2843 26.2843 26.5903 25.908 26.782C25.6366 26.9203 25.3668 26.9644 25.1382 26.9831C24.9301 27.0001 24.6843 27 24.4319 27H20.5681C20.3157 27 20.0699 27.0001 19.8618 26.9831C19.6332 26.9644 19.3634 26.9203 19.092 26.782C18.7157 26.5903 18.4097 26.2843 18.218 25.908C18.0797 25.6366 18.0356 25.3668 18.017 25.1382C17.9999 24.9301 18 24.6843 18 24.4319C18 24.4213 18 24.4106 18 24.4V20.6C18 20.5894 18 20.5787 18 20.5681C18 20.3157 17.9999 20.0699 18.017 19.8618C18.0356 19.6332 18.0797 19.3634 18.218 19.092C18.4097 18.7157 18.7157 18.4097 19.092 18.218C19.3634 18.0797 19.6332 18.0356 19.8618 18.017C20.0699 17.9999 20.3157 18 20.5681 18Z" fill="url(#paint0_linear_109_852)"/>
<path fill-rule="evenodd" clip-rule="evenodd" d="M20.5681 29C21.856 29.0002 23.1465 29.0002 24.4319 29C24.6843 29 24.9301 28.9999 25.1382 29.017C25.3668 29.0356 25.6366 29.0797 25.908 29.218C26.2843 29.4097 26.5903 29.7157 26.782 30.092C26.9203 30.3634 26.9644 30.6332 26.9831 30.8618C27.0001 31.0699 27 31.3157 27 31.5681V35.4319C27 35.6843 27.0001 35.9301 26.9831 36.1382C26.9644 36.3668 26.9203 36.6366 26.782 36.908C26.5903 37.2843 26.2843 37.5903 25.908 37.782C25.6366 37.9203 25.3668 37.9644 25.1382 37.9831C24.9301 38.0001 24.6843 38 24.4319 38H20.5681C20.3157 38 20.0699 38.0001 19.8618 37.9831C19.6332 37.9644 19.3634 37.9203 19.092 37.782C18.7157 37.5903 18.4097 37.2843 18.218 36.908C18.0797 36.6366 18.0356 36.3668 18.017 36.1382C17.9999 35.9301 18 35.6843 18 35.4319C18 35.4213 18 35.4106 18 35.4V31.6C18 31.5894 18 31.5787 18 31.5681C18 31.3157 17.9999 31.0699 18.017 30.8618C18.0356 30.6332 18.0797 30.3634 18.218 30.092C18.4097 29.7157 18.7157 29.4097 19.092 29.218C19.3634 29.0797 19.6332 29.0356 19.8618 29.017C20.0699 28.9999 20.3157 29 20.5681 29Z" fill="url(#paint1_linear_109_852)"/>
<path fill-rule="evenodd" clip-rule="evenodd" d="M31.5681 18C32.856 18.0002 34.1465 18.0002 35.4319 18C35.6843 18 35.9301 17.9999 36.1382 18.017C36.3668 18.0356 36.6366 18.0797 36.908 18.218C37.2843 18.4097 37.5903 18.7157 37.782 19.092C37.9203 19.3634 37.9644 19.6332 37.9831 19.8618C38.0001 20.0699 38 20.3157 38 20.5681V24.4319C38 24.6843 38.0001 24.9301 37.9831 25.1382C37.9644 25.3668 37.9203 25.6366 37.782 25.908C37.5903 26.2843 37.2843 26.5903 36.908 26.782C36.6366 26.9203 36.3668 26.9644 36.1382 26.9831C35.9301 27.0001 35.6843 27 35.4319 27H31.5681C31.3157 27 31.0699 27.0001 30.8618 26.9831C30.6332 26.9644 30.3634 26.9203 30.092 26.782C29.7157 26.5903 29.4097 26.2843 29.218 25.908C29.0797 25.6366 29.0356 25.3668 29.017 25.1382C28.9999 24.9301 29 24.6843 29 24.4319C29 24.4213 29 24.4106 29 24.4V20.6C29 20.5894 29 20.5787 29 20.5681C29 20.3157 28.9999 20.0699 29.017 19.8618C29.0356 19.6332 29.0797 19.3634 29.218 19.092C29.4097 18.7157 29.7157 18.4097 30.092 18.218C30.3634 18.0797 30.6332 18.0356 30.8618 18.017C31.0699 17.9999 31.3157 18 31.5681 18Z" fill="url(#paint2_linear_109_852)"/>
<path fill-rule="evenodd" clip-rule="evenodd" d="M31.5681 29C32.856 29.0002 34.1465 29.0002 35.4319 29C35.6843 29 35.9301 28.9999 36.1382 29.017C36.3668 29.0356 36.6366 29.0797 36.908 29.218C37.2843 29.4097 37.5903 29.7157 37.782 30.092C37.9203 30.3634 37.9644 30.6332 37.9831 30.8618C38.0001 31.0699 38 31.3157 38 31.5681V35.4319C38 35.6843 38.0001 35.9301 37.9831 36.1382C37.9644 36.3668 37.9203 36.6366 37.782 36.908C37.5903 37.2843 37.2843 37.5903 36.908 37.782C36.6366 37.9203 36.3668 37.9644 36.1382 37.9831C35.9301 38.0001 35.6843 38 35.4319 38H31.5681C31.3157 38 31.0699 38.0001 30.8618 37.9831C30.6332 37.9644 30.3634 37.9203 30.092 37.782C29.7157 37.5903 29.4097 37.2843 29.218 36.908C29.0797 36.6366 29.0356 36.3668 29.017 36.1382C28.9999 35.9301 29 35.6843 29 35.4319C29 35.4213 29 35.4106 29 35.4V31.6C29 31.5894 29 31.5787 29 31.5681C29 31.3157 28.9999 31.0699 29.017 30.8618C29.0356 30.6332 29.0797 30.3634 29.218 30.092C29.4097 29.7157 29.7157 29.4097 30.092 29.218C30.3634 29.0797 30.6332 29.0356 30.8618 29.017C31.0699 28.9999 31.3157 29 31.5681 29Z" fill="url(#paint3_linear_109_852)"/>
<defs>
<linearGradient id="paint0_linear_109_852" x1="20.9289" y1="35.0711" x2="35.0711" y2="20.9289" gradientUnits="userSpaceOnUse">
<stop stop-color="#F97066"/>
<stop offset="1" stop-color="#FDB022"/>
</linearGradient>
<linearGradient id="paint1_linear_109_852" x1="20.9289" y1="35.0711" x2="35.0711" y2="20.9289" gradientUnits="userSpaceOnUse">
<stop stop-color="#F97066"/>
<stop offset="1" stop-color="#FDB022"/>
</linearGradient>
<linearGradient id="paint2_linear_109_852" x1="20.9289" y1="35.0711" x2="35.0711" y2="20.9289" gradientUnits="userSpaceOnUse">
<stop stop-color="#F97066"/>
<stop offset="1" stop-color="#FDB022"/>
</linearGradient>
<linearGradient id="paint3_linear_109_852" x1="20.9289" y1="35.0711" x2="35.0711" y2="20.9289" gradientUnits="userSpaceOnUse">
<stop stop-color="#F97066"/>
<stop offset="1" stop-color="#FDB022"/>
</linearGradient>
</defs>
</svg>
